<?xml version="1.0" standalone="no"?><!DOCTYPE svg PUBLIC "-//W3C//DTD SVG 1.1//EN" "http://www.w3.org/Graphics/SVG/1.1/DTD/svg11.dtd"><svg width="200.1953125" height="200" viewBox="0 0 200.1953125 200" version="1.1" xmlns="http://www.w3.org/2000/svg" xmlns:xlink="http://www.w3.org/1999/xlink"><defs><style type="text/css"><![CDATA[

]]></style></defs><g class="transform-group"><g transform="scale(0.1953125, 0.1953125)"><path d="M474.458445 475.050246 474.458445 463.932532C474.458445 322.701241 474.448356 181.464906 474.473578 40.233616 474.478622 21.821793 483.139745 8.509793 498.50479 2.966069 521.113499-5.190621 545.523036 10.7293 547.207844 34.775645 547.434839 38.03933 547.328908 41.328236 547.333952 44.607054 547.338997 184.829478 547.338997 325.056946 547.338997 465.279369L547.338997 475.045202 557.614307 475.045202C698.088947 475.045202 838.568632 475.025025 979.043273 475.115823 984.541598 475.120867 990.241696 475.393261 995.507982 476.805675 1012.16942 481.285044 1022.651548 497.099034 1021.355154 514.814739 1020.114248 531.728394 1007.104908 545.469163 990.075233 547.602916 986.090208 548.102305 982.029519 548.137616 977.999095 548.137616 838.281105 548.162837 698.558071 548.157793 558.84008 548.157793L547.333952 548.157793 547.333952 558.276729C547.333952 699.760236 547.344041 841.248788 547.323864 982.732296 547.318819 1003.187074 536.629873 1017.452453 518.384514 1021.654384 497.273972 1026.512079 475.901125 1010.556847 474.589598 988.906562 474.408002 985.890049 474.468534 982.858404 474.468534 979.831803 474.463489 839.609379 474.463489 699.381911 474.463489 559.159488L474.463489 548.672315C470.468376 548.480631 467.058406 548.183015 463.648435 548.17797 322.921578 548.152749 182.189676 548.112394 41.462819 548.233458 27.833026 548.243547 16.014149 544.939507 7.464002 533.695685-9.152038 511.843626 3.292337 480.392197 30.38546 475.867429 34.582346 475.166266 38.91543 475.080512 43.187982 475.080512 183.410406 475.040158 323.637873 475.050246 463.860297 475.050246L474.458445 475.050246 474.458445 475.050246Z" fill="#aaa"></path></g></g></svg>