<?xml version="1.0" standalone="no"?><!DOCTYPE svg PUBLIC "-//W3C//DTD SVG 1.1//EN" "http://www.w3.org/Graphics/SVG/1.1/DTD/svg11.dtd"><svg width="200" height="200" viewBox="0 0 200 200" version="1.1" xmlns="http://www.w3.org/2000/svg" xmlns:xlink="http://www.w3.org/1999/xlink"><defs><style type="text/css"><![CDATA[

]]></style></defs><g class="transform-group"><g transform="scale(0.1953125, 0.1953125)"><path d="M456.899048 509.984508C453.073947 507.010032 450.489566 505.406307 448.392804 503.314963 304.31763 359.31564 160.307471 215.240466 16.178116 71.295323 6.00855 61.136593-0.249228 49.883429 1.690413 35.173587 3.662561 20.214519 11.751619 9.622349 25.589164 3.857608 39.838476-2.080508 53.188402 0.411767 65.243429 9.811979 68.217905 12.130878 70.807704 14.959069 73.48419 17.635556 216.768339 160.898032 360.041651 304.165926 503.271619 447.488 505.541757 449.758138 507.183407 452.651344 509.11763 455.257397 510.309587 455.522878 511.501545 455.78836 512.693503 456.053841 514.416423 453.285249 515.678815 450.050709 517.921862 447.807661 661.888677 303.694561 805.963852 159.68982 949.925249 15.57672 960.994201 4.491513 973.352635-1.728339 989.281524 1.847534 1018.901672 8.495407 1030.192762 43.728593 1009.961989 66.337862 1007.800212 68.759704 1005.416296 70.986497 1003.119069 73.283725 859.845757 216.557037 716.577862 359.835767 573.261206 503.065735 570.991069 505.335873 568.168296 507.053376 563.909757 510.336677 568.298328 513.717503 571.375746 515.592127 573.851767 518.068148 717.553101 661.677376 861.184 805.362455 1004.907005 948.950011 1013.667894 957.705481 1020.09363 967.235725 1020.017778 980.114286 1019.920254 996.628317 1012.427175 1008.910899 997.706497 1015.883852 982.649905 1023.013926 968.167619 1020.770878 955.278222 1010.005333 952.585481 1007.756868 950.169058 1005.161651 947.682201 1002.669376 804.598519 859.591111 661.514836 716.512847 518.447407 573.41291 516.155598 571.121101 514.091344 568.596317 511.295661 565.475556 508.451217 568.179132 506.143153 570.270476 503.948868 572.47018 359.711153 716.69164 215.446349 860.891429 71.300741 1005.204995 59.684571 1016.837418 46.643471 1022.667175 30.286561 1018.294857 2.080508 1010.758434-8.148656 976.690116 11.096042 954.687661 13.23073 952.244148 15.598392 950.001101 17.895619 947.703873 161.369397 804.219259 304.843175 660.740063 448.344042 517.28254 450.440804 515.196614 452.85181 513.424931 456.899048 509.984508L456.899048 509.984508Z" fill="#fff"></path></g></g></svg>